<?xml version="1.0" encoding="UTF-8"?>
<svg width="3600pt" height="3600pt" version="1.1" viewBox="0 0 3600 3600" xmlns="http://www.w3.org/2000/svg" fill="currentColor">
 <path d="m2802.2 1057.7c-266.04-334.08-675.72-548.28-1135.8-548.28-17.641 0-35.281 0-52.922 0.71875-459.72 16.559-858.6 253.08-1111.7 603.36l-321.84 0.003907c0 127.08 56.16 240.84 144.36 318.96-70.199 174.6-109.08 364.68-109.08 562.68v1095.5h267.48v-1095.5c0-139.32 24.48-272.88 67.68-398.52-5.7617 37.078-9.3594 74.52-9.3594 112.68-0.003906 408.24 330.84 738.72 738.72 738.72 167.04 0 320.4-56.52 443.88-150.12l153 261 146.88-250.92c120.96 87.484 269.28 140.04 430.2 140.04 146.16 0 281.52-42.84 396.36-115.56v758.16h267.12l-0.003907-1057.7c47.879-97.922 75.602-207.36 75.602-323.64 0-71.281-10.801-140.04-29.879-205.56 151.2-65.16 257.04-215.28 257.04-390.24l-530.64-0.003906c-27.719-20.16-56.52-39.242-87.121-55.801zm-1179.4-280.44c14.762-0.35938 29.16-0.71875 43.559-0.71875 246.24 0 475.56 75.961 665.28 205.56-189 31.68-353.52 133.92-464.76 280.08-135-176.76-347.4-291.6-587.16-291.6-146.16 0-281.88 42.84-396.72 116.28 199.44-183.23 457.56-299.52 739.8-309.6zm830.88 1403.6c-147.6 0-284.04-68.039-374.4-186.48l-212.4-278.64-212.76 278.64c-90.359 118.44-226.8 186.48-374.4 186.48-259.92 0-471.6-211.68-471.6-471.6s211.68-471.24 471.6-471.24c147.6 0 284.04 67.68 374.4 186.12l212.76 278.64 212.4-278.64c90.359-118.44 226.8-186.12 374.4-186.12 259.92 0 471.6 211.32 471.6 471.24-0.003906 259.92-211.68 471.6-471.6 471.6z"/>
 <path d="m1482.9 1709.4c0 112.2-90.949 203.15-203.14 203.15s-203.15-90.953-203.15-203.15c0-112.2 90.953-203.15 203.15-203.15s203.14 90.953 203.14 203.15z"/>
 <path d="m2657.1 1709.4c0 112.2-90.953 203.15-203.15 203.15-112.2 0-203.14-90.953-203.14-203.15 0-112.2 90.949-203.15 203.14-203.15 112.2 0 203.15 90.953 203.15 203.15z"/>
</svg>
