<?xml version="1.0" encoding="UTF-8"?>
<svg width="3600pt" height="3600pt" version="1.1" viewBox="0 0 3600 3600" xmlns="http://www.w3.org/2000/svg">
 <path d="m608.87 2633.4c0 433.73 352.84 786.56 786.57 786.56h790.2c158.4 0 305.75-47.449 429.3-128.34 90.18 54.359 193.03 85.43 302.26 85.43h73.945v-73.945l-0.003907-1300v-73.945h-18.973v-1749.2h-152.61l-12.273 61.309c-59.113 295.81-320.58 510.48-621.68 510.48h-790.2c-301.11 0-562.57-214.67-621.68-510.48l-12.242-61.309h-152.61zm2234.3 589.32c-237.89-41.688-420.84-281.23-420.84-569.63 0-288.39 182.99-527.94 420.84-569.63zm-2081.9-2640.8c144.79 197.06 377.86 322.31 634.07 322.31h790.2c256.21 0 489.28-125.28 634.11-322.34v1356.5c-190.95 32.941-354.13 160.49-450.94 339.16-11.844-5.6523-24.91-9.0703-38.879-9.0703-50.148 0-90.938 40.824-90.938 90.973v176.58c0 30.098 14.867 56.629 37.477 73.188-0.79297 14.578-1.9805 29.09-1.9805 43.883 0 213.34 82.836 404.82 213.62 537.45-89.965 49.031-193.03 76.934-302.47 76.934h-790.2c-349.63 0-634.07-284.4-634.07-634.03z"/>
 <path d="m1251.1 2268.5c-50.148 0-90.938 40.824-90.938 90.973v176.58c0 50.148 40.789 90.938 90.938 90.938 50.148 0 90.938-40.789 90.938-90.938v-176.58c-0.003906-50.148-40.824-90.973-90.938-90.973z"/>
 <path d="m1790.5 2268.5c-50.148 0-90.938 40.824-90.938 90.973v176.58c0 50.148 40.789 90.938 90.938 90.938s90.938-40.789 90.938-90.938v-176.58c0-50.148-40.789-90.973-90.938-90.973z"/>
 <path d="m1520.8 2721.2c-50.148 0-90.938 40.824-90.938 90.973v176.58c0 50.148 40.789 90.938 90.938 90.938 50.148 0 90.938-40.789 90.938-90.938v-176.58c0-50.148-40.789-90.973-90.938-90.973z"/>
 <path d="m2060.2 2721.2c-50.148 0-90.938 40.824-90.938 90.973v176.58c0 50.148 40.789 90.938 90.938 90.938 50.148 0 90.938-40.789 90.938-90.938v-176.58c0-50.148-40.789-90.973-90.938-90.973z"/>
 <path d="m1271.2 2002.5v1.4023h258.84c53.027 0 103.86 21.059 141.37 58.535l119.09 119.09 119.09-119.09c37.477-37.477 88.344-58.535 141.37-58.535h189.79l108-5.0391c253.84-34.273 446.76-260.46 426.67-527.98-18.145-241.38-216.29-438.41-457.74-455.33-11.953-0.82813-23.832-1.2617-35.605-1.2617-254.66 0-464.15 192.42-491.54 439.78-27.395-247.32-236.91-439.74-491.54-439.78-11.699 0-23.473 0.39453-35.352 1.2227-245.45 17.062-445.36 220.29-458.68 465.98-15.055 276.38 196.95 506.02 466.23 521zm-304.02-512.17c8.8906-163.98 144.04-301.32 307.69-312.7 8.1016-0.57422 16.094-0.82812 24.086-0.82812 169.52 0 311.44 126.9 330.05 295.16 9.1094 82.332 78.695 144.61 161.5 144.61 82.836 0 152.39-62.281 161.53-144.61 18.648-168.27 160.52-295.16 330.05-295.16 8.0273 0 16.129 0.28906 24.266 0.86328 160.16 11.195 295.02 145.37 307.04 305.39 13.176 175.46-112.61 331.31-286.38 354.78-6.2656 0.82812-12.383 2.0508-18.395 3.5625h-257.65c-96.805 0-187.81 37.691-256.29 106.16l-4.2109 4.2109-4.2109-4.2109c-68.438-68.438-159.45-106.16-256.25-106.16h-237.42c-4.1055-0.53906-8.207-0.9375-12.422-1.1523-182.48-10.152-322.88-167.11-312.98-349.92z"/>
 <path d="m1477.6 1509.1c0 94.359-76.496 170.86-170.86 170.86-94.359 0-170.86-76.496-170.86-170.86 0-94.363 76.496-170.86 170.86-170.86 94.363 0 170.86 76.496 170.86 170.86z"/>
 <path d="m2445.2 1509.1c0 94.359-76.496 170.86-170.86 170.86-94.363 0-170.86-76.496-170.86-170.86 0-94.363 76.492-170.86 170.86-170.86 94.359 0 170.86 76.496 170.86 170.86z"/>
</svg>
